<svg width="1393" height="1393" viewBox="0 0 1393 1393" fill="none" xmlns="http://www.w3.org/2000/svg">
<path d="M768.66 1389.29C744.939 1391.74 720.866 1392.99 696.5 1392.99C672.134 1392.99 648.06 1391.74 624.339 1389.3L696.5 831.606L768.66 1389.29ZM621.886 1389.04C573.207 1383.85 526.026 1373.66 480.87 1358.97L663.464 828.247L621.886 1389.04ZM912.129 1358.97C866.973 1373.65 819.793 1383.85 771.113 1389.04L729.536 828.247L912.129 1358.97ZM478.469 1358.18C432.455 1343.03 388.561 1323.21 347.346 1299.29L631.779 818.307L478.469 1358.18ZM1045.65 1299.28C1004.44 1323.21 960.543 1343.03 914.529 1358.18L761.221 818.307L1045.65 1299.28ZM345.046 1297.94C303.689 1273.73 265.055 1245.36 229.71 1213.43L602.745 802.191L345.046 1297.94ZM1163.29 1213.43C1127.94 1245.36 1089.31 1273.72 1047.95 1297.94L790.255 802.191L1163.29 1213.43ZM227.593 1211.51C207.751 1193.43 188.957 1174.23 171.314 1153.99C157.804 1138.49 144.97 1122.39 132.855 1105.74L577.55 780.562L227.593 1211.51ZM1260.14 1105.74C1232.21 1144.15 1200.44 1179.59 1165.41 1211.51L815.45 780.562L1260.14 1105.74ZM131.038 1103.23C103.676 1065.26 80.0457 1024.42 60.6816 981.246L557.224 754.302L131.038 1103.23ZM1332.32 981.245C1312.95 1024.42 1289.32 1065.26 1261.96 1103.23L835.776 754.302L1332.32 981.245ZM59.3115 978.169C40.6454 936.006 26.0408 891.644 15.9951 845.579L542.6 724.489L59.3115 978.169ZM1377.01 845.58C1366.96 891.645 1352.35 936.006 1333.69 978.169L850.4 724.489L1377.01 845.58ZM15.2217 841.986C5.80403 797.672 0.597854 751.801 0.0478516 704.81L534.276 692.342L15.2217 841.986ZM1392.95 704.81C1392.4 751.801 1387.2 797.672 1377.78 841.986L858.724 692.342L1392.95 704.81ZM532.594 659.178L0.0126953 700.807C0.0039699 699.369 0 697.93 0 696.49C0 651.493 4.26755 607.493 12.4189 564.872L532.594 659.178ZM1380.58 564.872C1388.73 607.493 1393 651.493 1393 696.49C1393 697.93 1392.99 699.369 1392.99 700.807L860.406 659.178L1380.58 564.872ZM537.623 626.354L13.2432 560.636C22.0988 515.846 35.2507 472.6 52.248 431.345L537.623 626.354ZM1340.75 431.345C1357.75 472.6 1370.9 515.846 1379.76 560.636L855.378 626.354L1340.75 431.345ZM549.155 595.214L54.0225 427.078C71.4076 385.668 92.6779 346.293 117.38 309.409L549.155 595.214ZM1275.62 309.41C1300.32 346.294 1321.59 385.669 1338.98 427.078L843.845 595.214L1275.62 309.41ZM566.721 567.033L120.127 305.341C145.026 268.722 173.323 234.599 204.565 203.427L566.721 567.033ZM1188.43 203.427C1219.68 234.598 1247.97 268.722 1272.87 305.341L826.279 567.033L1188.43 203.427ZM589.599 542.966L208.232 199.797C239.441 169.115 273.527 141.35 310.05 116.947L589.599 542.966ZM1082.95 116.947C1119.47 141.35 1153.56 169.115 1184.77 199.797L803.401 542.966L1082.95 116.947ZM616.854 523.995L314.516 113.988C350.722 90.1973 389.279 69.6911 429.764 52.8936L616.854 523.995ZM963.235 52.8936C1003.72 69.6911 1042.28 90.1973 1078.48 113.988L776.146 523.995L963.235 52.8936ZM647.369 510.9L434.854 50.8076C474.623 34.6762 516.22 22.112 559.248 13.5127L647.369 510.9ZM833.751 13.5127C876.779 22.112 918.376 34.6762 958.146 50.8076L745.631 510.9L833.751 13.5127ZM679.896 504.216L564.739 12.4355C606.515 4.43681 649.616 0.174519 693.683 0L679.896 504.216ZM699.316 0C743.383 0.174449 786.484 4.43686 828.26 12.4355L713.104 504.216L699.316 0Z" fill="#B68F8F"/>
</svg>
