<svg width="1000" height="1000" viewBox="0 0 1000 1000" fill="none" xmlns="http://www.w3.org/2000/svg">
<path d="M500 0L509.995 309.279L552.264 2.73904L529.876 311.368L603.956 10.9262L549.43 315.525L654.508 24.4717L568.442 321.702L703.368 43.2273L586.704 329.833L750 66.9873L604.017 339.828L793.893 95.4915L620.19 351.578L834.565 128.428L635.045 364.955L871.572 165.435L648.422 379.81L904.508 206.107L660.172 395.983L933.013 250L670.167 413.296L956.773 296.632L678.298 431.558L975.528 345.492L684.475 450.57L989.074 396.044L688.632 470.124L997.261 447.736L690.721 490.005L1000 500L690.721 509.995L997.261 552.264L688.632 529.876L989.074 603.956L684.475 549.43L975.528 654.508L678.298 568.442L956.773 703.368L670.167 586.704L933.013 750L660.172 604.017L904.508 793.893L648.422 620.19L871.572 834.565L635.045 635.045L834.565 871.572L620.19 648.422L793.893 904.508L604.017 660.172L750 933.013L586.704 670.167L703.368 956.773L568.442 678.298L654.508 975.528L549.43 684.475L603.956 989.074L529.876 688.632L552.264 997.261L509.995 690.721L500 1000L490.005 690.721L447.736 997.261L470.124 688.632L396.044 989.074L450.57 684.475L345.492 975.528L431.558 678.298L296.632 956.773L413.296 670.167L250 933.013L395.983 660.172L206.107 904.508L379.81 648.422L165.435 871.572L364.955 635.045L128.428 834.565L351.578 620.19L95.4915 793.893L339.828 604.017L66.9873 750L329.833 586.704L43.2273 703.368L321.702 568.442L24.4717 654.508L315.525 549.43L10.9262 603.956L311.368 529.876L2.73904 552.264L309.279 509.995L0 500L309.279 490.005L2.73904 447.736L311.368 470.124L10.9262 396.044L315.525 450.57L24.4717 345.492L321.702 431.558L43.2273 296.632L329.833 413.296L66.9873 250L339.828 395.983L95.4915 206.107L351.578 379.81L128.428 165.435L364.955 364.955L165.435 128.428L379.81 351.578L206.107 95.4915L395.983 339.828L250 66.9873L413.296 329.833L296.632 43.2273L431.558 321.702L345.492 24.4717L450.57 315.525L396.044 10.9262L470.124 311.368L447.736 2.73904L490.005 309.279L500 0Z" fill="#FC0000"/>
</svg>
