<svg width="1920" height="1080" viewBox="0 0 1920 1080" fill="none" xmlns="http://www.w3.org/2000/svg">
<path d="M958.471 1668C917.699 1667.96 877.435 1665.76 837.785 1661.51L945.599 758.863L958.471 1668ZM1081.22 1661.51C1041.57 1665.76 1001.31 1667.96 960.534 1668L973.407 758.863L1081.22 1661.51ZM835.729 1661.28C795.31 1656.87 755.532 1650.32 716.512 1641.75L917.942 755.957L835.729 1661.28ZM1202.49 1641.75C1163.47 1650.32 1123.7 1656.87 1083.28 1661.28L1001.06 755.957L1202.49 1641.75ZM714.475 1641.3C674.903 1632.53 636.114 1621.68 598.228 1608.88L890.741 750.175L714.475 1641.3ZM1320.78 1608.88C1282.89 1621.68 1244.1 1632.53 1204.53 1641.3L1028.26 750.175L1320.78 1608.88ZM596.217 1608.2C557.982 1595.19 520.67 1580.19 484.404 1563.31L864.294 741.581L596.217 1608.2ZM1434.6 1563.31C1398.33 1580.19 1361.02 1595.19 1322.79 1608.2L1054.71 741.581L1434.6 1563.31ZM1542.58 1505.72C1508.39 1526.42 1473.01 1545.35 1436.57 1562.39L1080.12 730.271L1542.58 1505.72ZM482.434 1562.39C445.993 1545.35 410.613 1526.42 376.422 1505.72L838.89 730.271L482.434 1562.39ZM1643.47 1436.93C1611.76 1461.16 1578.73 1483.74 1544.5 1504.56L1104.2 716.366L1643.47 1436.93ZM374.504 1504.56C340.277 1483.74 307.245 1461.16 275.537 1436.93L814.807 716.366L374.504 1504.56ZM273.691 1435.51C242.054 1411.23 211.741 1385.32 182.879 1357.89L792.309 700.021L273.691 1435.51ZM1736.13 1357.89C1707.26 1385.32 1676.95 1411.23 1645.31 1435.51L1126.7 700.021L1736.13 1357.89ZM181.129 1356.22C156.066 1332.3 132.104 1307.23 109.326 1281.11C106.012 1277.3 102.722 1273.48 99.458 1269.63L771.644 681.413L181.129 1356.22ZM1819.55 1269.63C1793.85 1299.91 1766.59 1328.81 1737.88 1356.22L1147.36 681.413L1819.55 1269.63ZM1892.83 1173.28C1870.58 1206.03 1846.66 1237.55 1821.17 1267.71L1165.97 660.748L1892.83 1173.28ZM97.8311 1267.71C72.3492 1237.55 48.4219 1206.03 26.1738 1173.28L753.035 660.748L97.8311 1267.71ZM24.6992 1171.1C2.70999 1138.57 -17.6251 1104.83 -36.1865 1070L736.69 638.25L24.6992 1171.1ZM1955.19 1070C1936.63 1104.83 1916.29 1138.57 1894.3 1171.1L1182.32 638.25L1955.19 1070ZM-37.4736 1067.57C-55.7452 1033.08 -72.2806 997.533 -86.9609 961.036L722.786 614.167L-37.4736 1067.57ZM2005.96 961.036C1991.28 997.533 1974.75 1033.08 1956.48 1067.57L1196.22 614.167L2005.96 961.036ZM-88.0273 958.373C-102.405 922.364 -114.979 885.44 -125.639 847.713L711.475 588.763L-88.0273 958.373ZM2044.64 847.713C2033.98 885.44 2021.41 922.364 2007.03 958.373L1207.53 588.763L2044.64 847.713ZM-126.451 844.824C-136.819 807.75 -145.339 769.905 -151.906 731.394L702.882 562.315L-126.451 844.824ZM2070.91 731.394C2064.34 769.905 2055.82 807.749 2045.46 844.823L1216.12 562.315L2070.91 731.394ZM-152.43 728.297C-158.747 690.619 -163.196 652.308 -165.677 613.462L697.1 535.114L-152.43 728.297ZM2084.68 613.462C2082.2 652.308 2077.75 690.619 2071.43 728.297L1221.91 535.114L2084.68 613.462ZM694.193 507.458L-165.881 610.187C-167.286 587.138 -168 563.902 -168 540.499C-168 525.348 -167.7 510.267 -167.108 495.262L694.193 507.458ZM2086.11 495.262C2086.7 510.268 2087.01 525.348 2087.01 540.499C2087.01 563.901 2086.29 587.137 2084.89 610.186L1224.81 507.458L2086.11 495.262ZM694.193 479.649L-166.968 491.843C-165.335 453.383 -161.776 415.423 -156.384 378.055L694.193 479.649ZM2075.39 378.055C2080.78 415.423 2084.34 453.383 2085.97 491.843L1224.81 479.649L2075.39 378.055ZM697.1 451.993L-155.87 374.534C-150.295 336.742 -142.845 299.561 -133.617 263.087L697.1 451.993ZM2052.62 263.087C2061.85 299.56 2069.3 336.742 2074.88 374.534L1221.91 451.993L2052.62 263.087ZM702.882 424.792L-132.706 259.511C-123.284 222.781 -112.058 186.774 -99.1289 151.59L702.882 424.792ZM2018.13 151.59C2031.06 186.774 2042.29 222.781 2051.71 259.511L1216.12 424.792L2018.13 151.59ZM711.475 398.345L-97.8047 148.004C-84.6976 112.71 -69.8737 78.2498 -53.4346 44.7256L711.475 398.345ZM1972.44 44.7256C1988.88 78.2497 2003.7 112.71 2016.81 148.004L1207.53 398.345L1972.44 44.7256ZM722.786 372.94L-51.6875 41.1797C-35.1051 7.66221 -16.9057 -24.9133 2.80957 -56.4434L722.786 372.94ZM1916.2 -56.4434C1935.91 -24.9133 1954.11 7.66219 1970.69 41.1797L1196.22 372.94L1916.2 -56.4434ZM736.69 348.857L4.97656 -59.8955C24.7907 -91.3305 46.1155 -121.718 68.8477 -150.957L736.69 348.857ZM1850.16 -150.957C1872.89 -121.718 1894.21 -91.3305 1914.03 -59.8955L1182.32 348.857L1850.16 -150.957ZM753.035 326.359L71.4268 -154.263C94.2089 -183.343 118.389 -211.276 143.864 -237.961L753.035 326.359ZM1775.14 -237.961C1800.62 -211.276 1824.8 -183.343 1847.58 -154.263L1165.97 326.359L1775.14 -237.961ZM771.644 305.694L146.839 -241.064C172.313 -267.546 199.069 -292.787 227.008 -316.684L771.644 305.694ZM1692 -316.684C1719.94 -292.787 1746.69 -267.546 1772.17 -241.064L1147.36 305.694L1692 -316.684ZM792.309 287.086L230.354 -319.532C258.235 -343.194 287.282 -365.524 317.396 -386.425L792.309 287.086ZM1601.61 -386.425C1631.72 -365.524 1660.77 -343.194 1688.65 -319.532L1126.7 287.086L1601.61 -386.425ZM814.807 270.741L321.078 -388.971C351.071 -409.612 382.114 -428.837 414.108 -446.554L814.807 270.741ZM1504.9 -446.554C1536.89 -428.837 1567.93 -409.612 1597.93 -388.971L1104.2 270.741L1504.9 -446.554ZM838.89 256.837L418.09 -448.748C449.886 -466.187 482.614 -482.137 516.181 -496.506L838.89 256.837ZM1402.82 -496.506C1436.39 -482.137 1469.12 -466.187 1500.92 -448.748L1080.12 256.837L1402.82 -496.506ZM864.294 245.525L520.417 -498.31C553.691 -512.391 587.782 -524.921 622.598 -535.808L864.294 245.525ZM1296.41 -535.808C1331.22 -524.921 1365.31 -512.391 1398.59 -498.31L1054.71 245.525L1296.41 -535.808ZM890.741 236.933L627.04 -537.187C661.451 -547.79 696.565 -556.791 732.295 -564.102L890.741 236.933ZM1186.71 -564.102C1222.44 -556.791 1257.55 -547.79 1291.96 -537.187L1028.26 236.933L1186.71 -564.102ZM917.942 231.15L736.89 -565.031C772.087 -572.08 807.876 -577.49 844.175 -581.178L917.942 231.15ZM1074.83 -581.178C1111.13 -577.49 1146.92 -572.08 1182.12 -565.031L1001.06 231.15L1074.83 -581.178ZM945.599 228.244L848.864 -581.644C884.497 -585.114 920.615 -586.925 957.142 -587L945.599 228.244ZM961.863 -587C998.39 -586.925 1034.51 -585.114 1070.14 -581.644L973.407 228.244L961.863 -587Z" fill="url(#paint0_radial_161_1505)"/>
<defs>
<radialGradient id="paint0_radial_161_1505" cx="0" cy="0" r="1" gradientUnits="userSpaceOnUse" gradientTransform="translate(959.503 540.5) rotate(90) scale(1127.5 1127.5)">
<stop offset="0.163462" stop-color="#7A0000" stop-opacity="0"/>
<stop offset="1" stop-color="#FF9881"/>
</radialGradient>
</defs>
</svg>
